<svg width="14" height="16" viewBox="0 0 14 16" fill="none" xmlns="http://www.w3.org/2000/svg">
<path d="M12 3.66797L11.5868 10.3514C11.4813 12.0589 11.4285 12.9127 11.0005 13.5265C10.7889 13.83 10.5164 14.0862 10.2005 14.2786C9.56141 14.668 8.70599 14.668 6.99516 14.668C5.28208 14.668 4.42554 14.668 3.78604 14.2779C3.46987 14.0851 3.19733 13.8285 2.98579 13.5245C2.55792 12.9097 2.5063 12.0547 2.40307 10.3447L2 3.66797" stroke="#AAAAAA" stroke-width="1.5" stroke-linecap="round"/>
<path d="M5 7.82422H9" stroke="#AAAAAA" stroke-width="1.5" stroke-linecap="round"/>
<path d="M6 10.4375H8" stroke="#AAAAAA" stroke-width="1.5" stroke-linecap="round"/>
<path d="M1 3.66732H13M9.70369 3.66732L9.24858 2.72847C8.94626 2.10482 8.7951 1.793 8.53435 1.59852C8.47651 1.55538 8.41527 1.51701 8.35122 1.48379C8.06248 1.33398 7.71595 1.33398 7.02289 1.33398C6.31243 1.33398 5.95719 1.33398 5.66366 1.49006C5.59861 1.52466 5.53653 1.56458 5.47807 1.60943C5.2143 1.81178 5.06696 2.13502 4.77228 2.78149L4.36849 3.66732" stroke="#AAAAAA" stroke-width="1.5" stroke-linecap="round"/>
</svg>
