<svg width="16" height="14" viewBox="0 0 16 14" fill="none" xmlns="http://www.w3.org/2000/svg">
<path d="M14.6666 7.33403C14.6666 7.00644 14.6631 6.34547 14.6561 6.01691C14.6125 3.97322 14.5907 2.95138 13.8366 2.19443C13.0825 1.43747 12.033 1.4111 9.93404 1.35836C8.64038 1.32586 7.35946 1.32586 6.0658 1.35836C3.9668 1.41109 2.91731 1.43746 2.16322 2.19442C1.40913 2.95137 1.38734 3.97322 1.34376 6.0169C1.32975 6.67403 1.32975 7.32727 1.34376 7.9844C1.38735 10.0281 1.40914 11.0499 2.16322 11.8069C2.91731 12.5638 3.96681 12.5902 6.0658 12.6429C6.60098 12.6564 7.13397 12.6643 7.66659 12.6666" stroke="#AAAAAA" stroke-width="1.5" stroke-linecap="round" stroke-linejoin="round"/>
<path d="M4.6665 4.66797L6.62785 5.82759C7.77132 6.50365 8.22836 6.50365 9.37183 5.82759L11.3332 4.66797" stroke="#AAAAAA" stroke-width="1.5" stroke-linecap="round" stroke-linejoin="round"/>
<path d="M14.6666 10.6667L9.33325 10.6667M14.6666 10.6667C14.6666 10.1998 13.3371 9.32769 12.9999 9M14.6666 10.6667C14.6666 11.1335 13.3371 12.0056 12.9999 12.3333" stroke="#AAAAAA" stroke-width="1.5" stroke-linecap="round" stroke-linejoin="round"/>
</svg>
