<svg width="16" height="16" viewBox="0 0 16 16" fill="none" xmlns="http://www.w3.org/2000/svg">
<path d="M8.99992 12.9928C8.02179 13.0056 7.04747 12.9996 6.0658 12.975C3.96681 12.9222 2.91731 12.8959 2.16322 12.1389C1.40914 11.382 1.38735 10.3601 1.34376 8.31643C1.32975 7.65931 1.32975 7.00606 1.34376 6.34893C1.38734 4.30525 1.40913 3.2834 2.16322 2.52645C2.91731 1.76949 3.9668 1.74312 6.0658 1.69039C7.35946 1.65789 8.64038 1.65789 9.93404 1.69039C12.033 1.74313 13.0825 1.7695 13.8366 2.52646C14.5907 3.28341 14.6125 4.30526 14.6561 6.34895C14.6631 6.6775 14.6666 7.00509 14.6666 7.33268" stroke="#AAAAAA" stroke-width="1.5" stroke-linecap="round" stroke-linejoin="round"/>
<path d="M4.6665 5L6.62785 6.15962C7.77132 6.83568 8.22836 6.83568 9.37183 6.15962L11.3332 5" stroke="#AAAAAA" stroke-width="1.5" stroke-linecap="round" stroke-linejoin="round"/>
<path d="M10.6665 10.6667C10.9942 10.3295 11.8664 9 12.3332 9M13.9998 10.6667C13.6722 10.3295 12.8 9 12.3332 9M12.3332 9V14.3333" stroke="#AAAAAA" stroke-width="1.5" stroke-linecap="round" stroke-linejoin="round"/>
</svg>
