<svg width="16" height="12" viewBox="0 0 16 12" fill="none" xmlns="http://www.w3.org/2000/svg">
<path d="M14.3628 5.36397C14.5655 5.64819 14.6668 5.79029 14.6668 6.00065C14.6668 6.21101 14.5655 6.35311 14.3628 6.63733C13.4521 7.91436 11.1263 10.6673 8.00016 10.6673C4.87402 10.6673 2.54823 7.91436 1.63752 6.63733C1.43484 6.35311 1.3335 6.21101 1.3335 6.00065C1.3335 5.79029 1.43484 5.64819 1.63752 5.36397C2.54823 4.08695 4.87402 1.33398 8.00016 1.33398C11.1263 1.33398 13.4521 4.08694 14.3628 5.36397Z" stroke="#AAAAAA" stroke-width="1.5"/>
<path d="M10.0001 6C10.0001 4.89543 9.10469 4 8.00012 4C6.89555 4 6.00012 4.89543 6.00012 6C6.00012 7.10457 6.89555 8 8.00012 8C9.10469 8 10.0001 7.10457 10.0001 6Z" stroke="#AAAAAA" stroke-width="1.5"/>
</svg>
